<svg width="129" height="134" viewBox="0 0 129 134" fill="none" xmlns="http://www.w3.org/2000/svg">
<path d="M49.0641 35.9937C30.1518 35.8078 14.5422 27.7093 3.07281 44.897C-8.39662 62.0846 38.846 84.0506 38.846 84.0506C38.846 84.0506 15.3175 123.584 32.8647 131.681C48.7096 138.994 67.9368 106.779 67.9368 106.779C67.9368 106.779 83.0385 131.238 97.0276 129.507C116.148 127.141 96.348 80.408 96.348 80.408C96.348 80.408 127.39 73.2017 127.489 58.0381C127.602 40.8499 86.3009 40.8058 86.3009 40.8058C86.3009 40.8058 88.718 7.3341 75.3456 2.35501C59.0881 -3.69831 49.0641 35.9937 49.0641 35.9937Z" stroke="#FFDA3D" stroke-width="2" stroke-linecap="round"/>
</svg>
