<svg width="64" height="60" viewBox="0 0 64 60" fill="none" xmlns="http://www.w3.org/2000/svg">
<path d="M49.4047 24.8808C51.652 16.2307 57.1496 9.99941 50.5802 2.77575C44.0107 -4.44791 28.5385 14.702 28.5385 14.702C28.5385 14.702 13.1021 -0.605316 7.3832 6.51443C2.2191 12.9435 14.7918 25.442 14.7918 25.442C14.7918 25.442 1.85061 29.5701 1.04521 36.1821C-0.0555834 45.2192 23.6351 41.4834 23.6351 41.4834C23.6351 41.4834 23.3905 56.5402 30.3318 58.3191C38.1998 60.3356 42.9415 41.404 42.9415 41.404C42.9415 41.404 58.0121 46.3387 61.8238 40.7765C66.4578 34.0144 49.4047 24.8808 49.4047 24.8808Z" stroke="#FFDA3D" stroke-width="2" stroke-linecap="round"/>
</svg>
