<svg width="150" height="152" viewBox="0 0 150 152" fill="none" xmlns="http://www.w3.org/2000/svg">
<circle cx="50.9813" cy="78.3258" r="5.47119" transform="rotate(-66 50.9813 78.3258)" stroke="#FFDA3D" stroke-width="2"/>
<circle cx="70.9548" cy="42.0962" r="7.58136" transform="rotate(-66 70.9548 42.0962)" stroke="#FFDA3D" stroke-width="2"/>
<circle cx="85.8437" cy="76.4539" r="3.36102" transform="rotate(-66 85.8437 76.4539)" stroke="#FFDA3D" stroke-width="2"/>
<circle cx="29.7812" cy="55.7195" r="4.36102" transform="rotate(-66 29.7812 55.7195)" fill="#FFDA3D"/>
<circle cx="84.0657" cy="116.775" r="4.34577" transform="rotate(-66 84.0657 116.775)" stroke="#FFDA3D" stroke-width="2"/>
<path d="M106.713 42.7732C107.606 40.768 110.623 39.7572 113.736 41.1431C116.849 42.5291 118.116 45.4476 117.223 47.4527C116.33 49.4577 113.314 50.4688 110.201 49.0831C107.088 47.6972 105.82 44.7784 106.713 42.7732Z" stroke="#FFDA3D" stroke-width="2"/>
<path d="M112.738 91.302C112.544 90.7696 112.506 90.491 112.499 90.3675C112.547 90.3468 112.618 90.3139 112.723 90.2755C113.045 90.1584 113.704 89.9404 114.179 89.3142C114.546 88.8322 114.733 88.216 114.767 87.451C116.189 86.9938 117.442 86.7944 118.421 86.91C118.971 86.9751 119.399 87.1354 119.725 87.3727C120.044 87.605 120.318 87.949 120.509 88.4736C121.26 90.5361 119.792 93.3591 116.59 94.5245C115.804 94.8106 115.283 94.8554 114.936 94.8054C114.619 94.7597 114.382 94.6261 114.16 94.3895C113.917 94.1296 113.689 93.7415 113.451 93.1926C113.212 92.6411 113 92.0227 112.738 91.302Z" stroke="#FFDA3D" stroke-width="2"/>
<path d="M47.6021 115.318C50.0035 118.753 38.0116 121.849 41.5115 124.155C68.8945 142.202 113.389 130.003 126.617 96.6007C138.004 67.851 129.226 37.3838 101.326 24.0516C72.6436 10.346 37.5756 22.16 24.576 51.169C18.4644 64.807 16.5578 89.7871 21.7514 89.3331C26.9449 88.8791 26.1629 84.9584 34.8623 89.6301C43.5617 94.3018 36.2329 109.181 43.2463 112.304C45.0456 113.105 46.2801 113.427 47.6021 115.318Z" stroke="#FFDA3D" stroke-width="2" stroke-linecap="round"/>
</svg>
