<svg width="237" height="237" viewBox="0 0 237 237" fill="none" xmlns="http://www.w3.org/2000/svg">
<circle cx="85.2197" cy="106.853" r="9.50394" transform="rotate(-41.4622 85.2197 106.853)" stroke="#FFDA3D" stroke-width="2" stroke-linecap="round"/>
<circle cx="134" cy="70.635" r="12.6031" transform="rotate(-41.4622 134 70.635)" stroke="#FFDA3D" stroke-width="2" stroke-linecap="round"/>
<circle cx="132.939" cy="125.621" r="6.40483" transform="rotate(-41.4622 132.939 125.621)" stroke="#FFDA3D" stroke-width="2" stroke-linecap="round"/>
<circle cx="84.7749" cy="62.9574" r="6.40483" transform="rotate(-41.4622 84.7749 62.9574)" stroke="#FFDA3D" stroke-width="2" stroke-linecap="round"/>
<circle cx="105.965" cy="178.404" r="7.85108" transform="rotate(-41.4622 105.965 178.404)" stroke="#FFDA3D" stroke-width="2" stroke-linecap="round"/>
<ellipse cx="178.942" cy="98.2373" rx="7.85108" ry="9.91716" transform="rotate(-41.4622 178.942 98.2373)" stroke="#FFDA3D" stroke-width="2" stroke-linecap="round"/>
<path d="M163.958 156.39C169.418 156.823 173.729 158.619 173.386 162.941C173.043 167.264 168.339 170.416 162.879 169.983C157.419 169.55 158.008 166.07 158.351 161.748C158.809 155.981 161.852 162.026 163.958 156.39Z" stroke="#FFDA3D" stroke-width="2" stroke-linecap="round"/>
<path d="M58.138 154.214C59.251 160.269 41.3415 157.091 44.6106 162.307C70.1877 203.119 137.073 213.958 175.12 177.401C207.867 145.936 214.723 99.8777 185.579 65.0485C155.618 29.2437 101.561 23.6386 66.5005 54.4663C50.0172 68.9594 32.234 101.17 39.4496 103.731C46.6652 106.293 48.0117 100.577 56.7849 112.125C65.5581 123.672 46.6914 139.082 54.1568 147.531C56.0721 149.699 57.5253 150.881 58.138 154.214Z" stroke="#FFDA3D" stroke-width="2" stroke-linecap="round"/>
</svg>
