<svg width="158" height="156" viewBox="0 0 158 156" fill="none" xmlns="http://www.w3.org/2000/svg">
<circle cx="82.2818" cy="102.396" r="5.8137" transform="rotate(-158 82.2818 102.396)" stroke="#FFDA3D" stroke-width="2"/>
<circle cx="43.429" cy="82.7103" r="8.03556" transform="rotate(-158 43.429 82.7103)" stroke="#FFDA3D" stroke-width="2"/>
<circle cx="79.033" cy="65.7763" r="3.59184" transform="rotate(-158 79.033 65.7763)" stroke="#FFDA3D" stroke-width="2"/>
<circle cx="59.283" cy="125.534" r="3.59184" transform="rotate(-158 59.283 125.534)" stroke="#FFDA3D" stroke-width="2"/>
<circle cx="121.53" cy="66.1726" r="4.62871" transform="rotate(-158 121.53 66.1726)" stroke="#FFDA3D" stroke-width="2"/>
<path d="M42.804 45.1087C40.6241 44.2278 39.4508 41.0515 40.8011 37.7093C42.1516 34.3673 45.2017 32.8982 47.3816 33.7788C49.5615 34.6595 50.735 37.8351 49.3848 41.1773C48.0344 44.5197 44.984 45.9895 42.804 45.1087Z" stroke="#FFDA3D" stroke-width="2"/>
<path d="M93.6947 36.9804C93.0834 37.2274 92.7838 37.2668 92.6659 37.2729C92.6416 37.2235 92.6018 37.1404 92.5471 37.0049C92.4115 36.6695 92.162 35.9988 91.4998 35.5311C90.9827 35.1659 90.3271 34.9955 89.5116 34.9925C88.9679 33.4942 88.704 32.1613 88.7913 31.1084C88.8401 30.5204 88.9956 30.055 89.2394 29.694C89.4786 29.3402 89.8394 29.0325 90.3931 28.8087C92.5731 27.9279 95.6235 29.3977 96.9739 32.7401C97.3056 33.5611 97.3756 34.1173 97.3345 34.4955C97.2966 34.8445 97.1579 35.1097 96.9094 35.3593C96.6385 35.6313 96.2318 35.8871 95.6609 36.1586C95.0874 36.4313 94.442 36.6785 93.6947 36.9804Z" stroke="#FFDA3D" stroke-width="2"/>
<path d="M121.333 104.596C124.86 101.942 128.558 114.448 130.857 110.68C148.841 81.202 134.369 34.8297 98.7342 22.1367C68.0628 11.2115 36.3251 21.5674 23.3211 51.4167C9.95279 82.1022 23.6732 118.57 54.6766 131.183C69.2523 137.113 95.6086 138.201 94.94 132.753C94.2715 127.305 90.1745 128.271 94.7708 118.946C99.3671 109.62 115.294 116.785 118.322 109.29C119.099 107.367 119.392 106.056 121.333 104.596Z" stroke="#FFDA3D" stroke-width="2" stroke-linecap="round"/>
</svg>
