<svg width="96" height="92" viewBox="0 0 96 92" fill="none" xmlns="http://www.w3.org/2000/svg">
<path d="M63.5198 22.5582C55.1303 12.0661 52.7744 -0.0111616 37.7386 1.06737C22.7028 2.14589 31.2958 37.6035 31.2958 37.6035C31.2958 37.6035 -2.00648 41.6545 1.2202 54.7982C4.13384 66.6668 31.2958 63.3956 31.2958 63.3956C31.2958 63.3956 24.0157 82.2306 31.2958 89.1876C41.2462 98.6962 59.2232 67.6942 59.2232 67.6942C59.2232 67.6942 77.3126 81.6847 86.0765 75.2169C96.0105 67.8855 77.4814 45.1286 77.4814 45.1286C77.4814 45.1286 97.8141 32.062 94.6695 22.5582C90.8466 11.0039 63.5198 22.5582 63.5198 22.5582Z" stroke="#FFDA3D" stroke-width="2" stroke-linecap="round"/>
</svg>
