<svg width="46" height="43" viewBox="0 0 46 43" fill="none" xmlns="http://www.w3.org/2000/svg">
<path d="M35.5037 17.964C37.0959 11.8354 40.991 7.42054 36.3365 2.30259C31.6821 -2.81536 20.72 10.7523 20.72 10.7523C20.72 10.7523 9.7834 -0.0928904 5.73156 4.95144C2.0728 9.5064 10.9806 18.3616 10.9806 18.3616C10.9806 18.3616 1.81172 21.2863 1.2411 25.9709C0.461192 32.3737 17.246 29.7269 17.246 29.7269C17.246 29.7269 17.0727 40.3946 21.9906 41.655C27.5651 43.0836 30.9246 29.6706 30.9246 29.6706C30.9246 29.6706 41.6021 33.1668 44.3026 29.2261C47.5858 24.4351 35.5037 17.964 35.5037 17.964Z" stroke="#FFDA3D" stroke-width="2" stroke-linecap="round"/>
</svg>
